<?xml version="1.0" standalone="no"?>
<!DOCTYPE svg PUBLIC "-//W3C//DTD SVG 20010904//EN"
 "http://www.w3.org/TR/2001/REC-SVG-20010904/DTD/svg10.dtd">
<svg version="1.0" xmlns="http://www.w3.org/2000/svg"
 width="696.000000pt" height="696.000000pt" viewBox="0 0 696.000000 696.000000"
 preserveAspectRatio="xMidYMid meet">

<g transform="translate(0.000000,696.000000) scale(0.100000,-0.100000)"
fill="#000000" stroke="none">
<path d="M3472 6953 l3478 -3 3 -3478 2 -3477 3 3483 2 3482 -3482 -2 -3483
-3 3477 -2z"/>
<path d="M2722 4733 c-386 -223 -701 -407 -700 -408 9 -7 1395 -804 1403 -807
11 -3 1415 803 1415 813 0 8 -1380 804 -1399 806 -9 1 -332 -180 -719 -404z
m455 -294 c65 -24 82 -87 36 -132 -64 -61 -222 -95 -320 -68 -51 14 -97 63
-87 95 16 53 96 102 187 116 55 8 147 3 184 -11z m833 -69 c22 -11 44 -29 50
-40 39 -74 -95 -160 -249 -160 -80 0 -126 12 -158 42 -51 48 -11 118 90 157
74 28 212 29 267 1z"/>
<path d="M1962 3404 l3 -817 705 -407 705 -407 3 815 c1 449 -1 819 -5 823
-13 12 -1397 809 -1405 809 -5 0 -7 -367 -6 -816z m341 412 c103 -42 173 -195
124 -269 -83 -128 -319 60 -276 218 17 61 79 82 152 51z m32 -471 c79 -60 120
-153 99 -228 -14 -47 -68 -72 -124 -57 -91 24 -178 148 -167 234 12 88 110
114 192 51z m780 6 c110 -67 161 -209 99 -276 -23 -25 -30 -27 -80 -23 -41 4
-63 12 -92 35 -91 74 -127 199 -73 257 30 32 100 36 146 7z m-809 -425 c92
-43 156 -158 133 -240 -30 -109 -189 -78 -262 51 -59 107 -28 203 68 212 6 0
33 -10 61 -23z m855 -62 c50 -49 83 -125 76 -177 -19 -138 -208 -106 -278 48
-23 49 -24 123 -4 153 38 53 139 41 206 -24z m-27 -411 c59 -41 106 -124 106
-186 0 -41 -5 -53 -30 -79 -28 -27 -36 -30 -77 -25 -118 13 -224 168 -183 267
27 65 109 75 184 23z"/>
<path d="M3887 3544 c-31 -29 -36 -38 -26 -50 10 -12 19 -10 59 13 46 26 47
28 33 50 -9 13 -18 23 -22 23 -3 0 -23 -16 -44 -36z"/>
<path d="M3490 3275 l0 -175 68 0 c124 1 192 54 200 157 10 119 -72 193 -215
193 l-53 0 0 -175z m157 73 c48 -44 37 -135 -18 -163 -56 -30 -59 -25 -59 91
l0 106 28 -7 c15 -3 37 -16 49 -27z"/>
<path d="M3800 3275 l0 -175 100 0 100 0 0 35 0 35 -60 0 -60 0 0 35 0 35 55
0 55 0 0 35 0 35 -55 0 -55 0 0 35 0 35 61 0 60 0 -3 33 -3 32 -97 3 -98 3 0
-176z"/>
<path d="M3490 2685 l0 -175 40 0 39 0 3 103 3 102 65 -102 c63 -100 66 -103
103 -103 l37 0 0 175 0 175 -35 0 -34 0 -3 -107 -3 -108 -70 107 c-68 105 -71
108 -107 108 l-38 0 0 -175z"/>
<path d="M3925 2846 c-124 -54 -135 -245 -19 -317 45 -27 125 -30 171 -6 87
46 120 165 69 252 -44 75 -141 106 -221 71z m115 -71 c39 -20 57 -78 40 -129
-19 -59 -67 -80 -123 -55 -66 30 -62 162 7 189 31 13 44 12 76 -5z"/>
<path d="M4210 2686 l0 -176 40 0 40 0 -2 173 -3 172 -37 3 -38 3 0 -175z"/>
<path d="M4340 2685 l0 -175 40 0 39 0 3 66 3 66 50 -66 c49 -66 50 -66 98
-66 56 0 58 -7 -21 87 l-44 52 34 30 c29 25 33 35 32 75 -2 77 -47 106 -164
106 l-70 0 0 -175z m148 70 c4 -31 -18 -55 -50 -55 -15 0 -18 8 -18 46 0 45 0
45 33 42 27 -3 32 -7 35 -33z"/>
<path d="M3564 2261 c-102 -62 -120 -200 -38 -285 69 -71 172 -68 239 5 30 34
35 46 35 89 l0 50 -81 0 -80 0 3 -27 c3 -24 8 -28 41 -31 22 -2 37 -8 37 -16
0 -23 -36 -46 -72 -46 -82 0 -120 119 -59 181 35 35 77 38 113 9 l25 -19 23
24 c19 21 21 27 10 40 -39 47 -140 60 -196 26z"/>
<path d="M3872 2106 l-70 -176 43 0 c41 0 44 2 55 35 l12 35 67 0 68 0 9 -32
10 -33 80 -3 81 -3 7 47 c3 26 6 69 6 95 0 27 5 49 10 49 6 0 10 -4 10 -9 0
-6 14 -48 31 -95 27 -75 34 -86 54 -86 21 0 27 11 57 101 29 88 34 98 39 73 4
-16 7 -51 8 -79 2 -82 8 -95 47 -95 40 0 40 -4 23 183 -15 174 -12 167 -58
167 l-39 0 -39 -102 -40 -102 -31 85 c-43 114 -43 114 -88 114 l-39 0 -13
-150 c-8 -82 -16 -157 -19 -165 -2 -8 -35 59 -71 150 l-67 165 -36 3 -36 3
-71 -175z m124 19 c20 -49 18 -55 -20 -55 l-35 0 16 45 c8 25 17 45 19 45 3 0
12 -16 20 -35z"/>
<path d="M4577 2273 c-4 -3 -7 -82 -7 -175 l0 -168 100 0 100 0 0 35 0 35 -60
0 -60 0 0 35 0 35 60 0 60 0 0 35 0 35 -60 0 -60 0 0 35 0 35 60 0 60 0 0 35
0 35 -93 0 c-52 0 -97 -3 -100 -7z"/>
<path d="M4872 2255 c-62 -52 -46 -128 36 -169 27 -14 54 -32 61 -40 33 -39
-50 -63 -98 -29 -23 16 -25 15 -43 -7 -29 -36 -19 -53 41 -73 103 -34 191 8
191 90 -1 49 -14 65 -86 106 -41 22 -59 39 -59 52 0 16 7 20 35 20 19 -1 44
-4 56 -8 16 -6 23 -2 32 18 17 37 15 42 -19 54 -56 19 -114 14 -147 -14z"/>
</g>
</svg>
